<svg width="291" height="82" viewBox="0 0 291 82" fill="none" xmlns="http://www.w3.org/2000/svg">
<path d="M269.052 60.766C254.577 62.0325 245.009 53.1011 243.816 39.4605C242.622 25.8199 250.494 15.3628 264.969 14.0963C279.36 12.8373 288.927 21.7687 290.121 35.4093C291.314 49.0499 283.443 59.507 269.052 60.766ZM268.152 50.4712C274.077 49.9528 277.319 45.0875 276.576 36.5943C275.833 28.1011 271.795 23.8727 265.87 24.3911C259.859 24.9169 256.617 29.7823 257.36 38.2755C258.103 46.7687 262.141 50.9971 268.152 50.4712Z" fill="white"/>
<path d="M222.18 1.6744L235.724 0.489415L241.091 61.8292L227.546 63.0142L227.163 58.6389L226.994 58.6537C225.504 61.1182 221.233 64.9497 214.968 65.4977C203.456 66.505 195.31 58.2272 194.049 43.8145C192.788 29.4018 199.372 19.8353 210.885 18.828C217.15 18.28 222.021 21.3116 223.917 23.4798L224.086 23.465L222.18 1.6744ZM217.623 54.8919C223.126 54.4105 226.121 49.6532 225.371 41.0742C224.62 32.4952 220.844 28.3304 215.341 28.8118C209.839 29.2932 206.843 34.0505 207.594 42.6295C208.344 51.2085 212.121 55.3733 217.623 54.8919Z" fill="white"/>
<path d="M180.218 17.621C176.409 17.9543 173.266 16.1545 172.913 12.1224C172.568 8.17605 175.343 5.77209 179.152 5.43881C182.962 5.10553 186.112 6.99106 186.457 10.9374C186.81 14.9695 184.027 17.2877 180.218 17.621ZM173.904 23.4467L187.448 22.2617L191.291 66.1861L177.747 67.3711L173.904 23.4467Z" fill="white"/>
<path d="M153.744 37.4858C153.519 34.9121 151.606 33.5234 147.881 33.8493C142.972 34.2789 140.766 36.3736 140.711 40.6143L128.013 41.7253C127.701 33.2808 133.003 25.6418 147.14 24.405C159.33 23.3385 166.523 27.5503 167.731 41.3624L169.495 61.5231C169.698 63.8394 170.627 64.709 172.32 64.5609L172.605 67.8209C169.986 69.0874 167.561 69.6453 164.853 69.8823C158.758 70.4156 156.809 67.6468 156.539 64.5584L156.37 64.5732C153.861 68.0776 149.022 71.2673 143.266 71.7709C134.124 72.5708 128.587 67.7819 127.941 60.404C127.176 51.6534 133.172 47.0658 143.15 44.1182C148.639 42.5141 154.067 41.1748 153.744 37.4858ZM147.181 61.9193C153.022 61.4082 155.485 57.3891 155.118 53.1854L154.652 47.8664C153.019 48.7008 150.955 49.4865 147.883 50.4469C142.655 52.1145 141.073 54.5006 141.313 57.2459C141.628 60.849 143.88 62.2081 147.181 61.9193Z" fill="white"/>
<path d="M105.338 11.8968L118.882 10.7118L124.249 72.0515L110.704 73.2365L105.338 11.8968Z" fill="white"/>
<path d="M86.6171 43.3587C86.3919 40.785 84.4791 39.3963 80.7544 39.7221C75.8445 40.1517 73.6393 42.2465 73.5839 46.4872L60.8859 47.5981C60.5736 39.1537 65.8764 31.5147 80.0134 30.2779C92.2034 29.2114 99.3959 33.4231 100.604 47.2353L102.368 67.3959C102.571 69.7122 103.5 70.5819 105.193 70.4337L105.478 73.6938C102.859 74.9602 100.434 75.5182 97.7255 75.7552C91.6306 76.2884 89.6823 73.5197 89.4121 70.4312L89.2428 70.4461C86.7345 73.9505 81.8955 77.1401 76.1391 77.6437C66.9966 78.4436 61.4596 73.6548 60.8141 66.2769C60.0485 57.5263 66.0447 52.9387 76.0229 49.991C81.5124 48.3869 86.9398 47.0476 86.6171 43.3587ZM80.054 67.7921C85.8951 67.2811 88.3584 63.2619 87.9906 59.0582L87.5252 53.7392C85.8922 54.5737 83.8284 55.3594 80.7563 56.3197C75.5283 57.9874 73.9457 60.3734 74.1859 63.1187C74.5012 66.7219 76.7526 68.0809 80.054 67.7921Z" fill="white"/>
<path d="M40.7124 40.5455C39.0265 33.9502 35.5511 29.3268 27.5091 30.0304C17.4354 30.9117 14.7398 39.1006 15.7456 50.5965C16.7589 62.1781 20.8355 69.7745 30.9092 68.8932C39.0358 68.1822 41.6555 63.0255 42.0709 56.0735L57.3084 54.7404C57.2149 69.2716 49.2817 79.9934 32.6897 81.4451C13.5582 83.1188 2.12932 70.4602 0.508101 51.9296C-1.10561 33.4847 7.95148 19.0338 27.083 17.36C43.5903 15.9158 53.2648 25.0972 55.9499 39.2124L40.7124 40.5455Z" fill="white"/>
</svg>
